<svg xmlns="http://www.w3.org/2000/svg" width="28" height="20" fill="none" viewBox="0 0 28 20"><path fill="#C2CFE0" d="M9.46647 6.64057L14.6913 13.4795H10.1797L7.01159 9.0907L5.03106 6.64057L0.200928 0.395996H4.71251L7.44785 4.14896L9.46647 6.64057Z"/><path fill="#90A0B7" d="M19.2478 10.2789C19.8528 10.7318 20.5898 10.9746 21.346 10.9701C22.4159 10.9701 23.1673 10.5381 23.6036 9.66726C24.0146 8.78268 24.2149 7.81516 24.1887 6.84044C24.2131 5.88919 24.0238 4.94456 23.6347 4.07583C23.4759 3.73151 23.2177 3.44233 22.8933 3.24533C22.5688 3.04832 22.1928 2.95245 21.8135 2.96998C21.3753 2.96311 20.9444 3.08232 20.5723 3.31335C20.2002 3.54439 19.9027 3.87748 19.7152 4.2728C19.3921 5.00656 19.2428 5.80477 19.2789 6.60545V10.2789H19.2478ZM15.5637 20V0.395433H18.7319L18.9292 1.70171C19.4041 1.15237 19.9951 0.714945 20.6596 0.420946C21.3242 0.126946 22.0458 -0.0163158 22.7726 0.00147583C24.5523 0.00147583 25.898 0.673046 26.8098 2.01619C27.6027 3.20152 27.9974 4.74279 27.9974 6.71949C27.9974 8.85515 27.6027 10.4759 26.7717 11.6612C26.2295 12.4469 25.4529 13.0419 24.5523 13.3615C23.7114 13.7075 22.8095 13.8815 21.9 13.8729C21.007 13.8757 20.121 13.7152 19.2859 13.3995V19.3538L15.5637 20Z"/><path fill="#90A0B7" d="M10.2974 5.53472L14.5736 0.395996H10.339L8.31689 3.08458"/><path fill="#90A0B7" d="M4.27959 8.30225L0 13.4375H4.23805L6.25666 10.7524"/></svg>