<svg xmlns="http://www.w3.org/2000/svg" width="119" height="24" fill="none" viewBox="0 0 119 24"><path fill="#C2CFE0" d="M102.5 11.4497L107.152 17.539H103.135L100.315 13.6312L98.5511 11.4497L94.2505 5.88965H98.2675L100.703 9.23121L102.5 11.4497Z"/><path fill="#90A0B7" d="M111.209 14.6893C111.748 15.0925 112.404 15.3087 113.078 15.3046C114.03 15.3046 114.699 14.92 115.088 14.1446C115.454 13.357 115.632 12.4956 115.609 11.6277C115.63 10.7807 115.462 9.93964 115.115 9.16614C114.974 8.85957 114.744 8.60209 114.455 8.42668C114.166 8.25127 113.832 8.16591 113.494 8.18152C113.104 8.1754 112.72 8.28154 112.389 8.48725C112.057 8.69296 111.793 8.98953 111.626 9.34152C111.338 9.99484 111.205 10.7056 111.237 11.4185V14.6893H111.209ZM107.929 23.3447V5.88919H110.75L110.926 7.05228C111.349 6.56315 111.875 6.17368 112.467 5.91191C113.058 5.65014 113.701 5.52258 114.348 5.53842C115.932 5.53842 117.131 6.13638 117.942 7.33228C118.648 8.38767 119 9.75999 119 11.52C119 13.4215 118.648 14.8646 117.909 15.92C117.426 16.6196 116.734 17.1493 115.932 17.4339C115.184 17.742 114.381 17.8969 113.571 17.8893C112.776 17.8917 111.987 17.7488 111.243 17.4677V22.7693L107.929 23.3447Z"/><path fill="#90A0B7" d="M103.24 10.4651L107.048 5.88965H103.277L101.477 8.28351"/><path fill="#90A0B7" d="M97.8822 12.9292L94.0718 17.5015H97.8452L99.6426 15.1108"/><path fill="#90A0B7" d="M3.3172 15.0158C3.85649 15.4242 4.51465 15.6457 5.19161 15.6465C5.61208 15.6767 6.03193 15.5799 6.39648 15.3686C6.76104 15.1573 7.05342 14.8414 7.23557 14.4619C7.60922 13.6472 7.78962 12.7575 7.76275 11.8619C7.79011 10.9943 7.6138 10.1324 7.2479 9.34496C7.10599 9.03069 6.87305 8.76603 6.5791 8.58506C6.28514 8.40409 5.94363 8.31511 5.59855 8.32957C5.1987 8.32604 4.80642 8.43842 4.46932 8.65307C4.13221 8.86772 3.86478 9.17542 3.69948 9.53881C3.40188 10.2033 3.26663 10.9289 3.30487 11.6557L3.3172 15.0158ZM0 23.8435V6.03417H2.86093L3.02741 7.2311C3.45161 6.73797 3.97965 6.34438 4.57385 6.07843C5.16805 5.81249 5.81375 5.68076 6.46484 5.69263C8.07412 5.69263 9.28775 6.30084 10.1058 7.51726C10.821 8.58188 11.1776 10.0086 11.1755 11.7973C11.1755 13.7235 10.8035 15.2188 10.0595 16.2835C9.56726 16.9891 8.8763 17.5331 8.07412 17.8466C7.31147 18.1551 6.49544 18.3109 5.67254 18.305C4.86855 18.3055 4.07092 18.1628 3.3172 17.8835V23.2989L0 23.8435Z"/><path fill="#90A0B7" d="M19.8077 10.7848C19.7953 10.263 19.6909 9.74739 19.4994 9.2617C19.1479 8.50477 18.4954 8.1263 17.5417 8.1263C16.1154 8.1263 15.3015 9.01246 15.1001 10.7848H19.8077ZM22.7518 12.9602H15.1217C15.1254 13.604 15.3172 14.2327 15.6735 14.7694C16.2037 15.4566 17.1451 15.7992 18.4974 15.7971C19.0533 15.8048 19.6079 15.7396 20.1468 15.6033C20.7498 15.4161 21.3332 15.1708 21.8886 14.871L22.6809 17.0587C21.3347 17.8792 19.7008 18.2894 17.7791 18.2894C13.7816 18.2915 11.7818 16.2976 11.7798 12.3079C11.7798 10.4309 12.197 8.91195 13.0314 7.75092C14.0344 6.36219 15.5409 5.66885 17.551 5.6709C21.0449 5.6709 22.7919 7.63707 22.7919 11.5694C22.8135 11.874 22.7857 12.3325 22.7518 12.9602Z"/><path fill="#90A0B7" d="M24.2346 17.9419V6.03414H27.1449L27.3114 8.05262C28.6329 6.61671 30.1877 5.91107 31.9758 5.93568L31.7538 8.68031C30.8972 8.68165 30.0563 8.91032 29.3174 9.34287C28.5784 9.77542 27.968 10.3963 27.5487 11.1419V17.9419H24.2346Z"/><path fill="#90A0B7" d="M31.4148 17.2893L32.1485 14.7385C33.2138 15.3915 34.432 15.7543 35.6815 15.7909C36.6804 15.7909 37.1829 15.4278 37.1829 14.7016C37.1888 14.564 37.1642 14.4267 37.1109 14.2996C37.0576 14.1725 36.9769 14.0587 36.8746 13.9662C36.3453 13.6013 35.7864 13.2812 35.2037 13.0093C33.987 12.3816 33.1494 11.797 32.6911 11.2554C32.2263 10.692 31.983 9.9788 32.0067 9.24928C31.9793 8.7419 32.0729 8.23526 32.2797 7.77098C32.4866 7.30669 32.8009 6.89801 33.1967 6.5785C33.9572 5.98157 34.9745 5.68311 36.2488 5.68311C37.4899 5.68973 38.7179 5.93633 39.865 6.40926L39.2639 8.82774C38.4139 8.42515 37.4884 8.20602 36.5478 8.18466C35.7154 8.18466 35.3044 8.48723 35.3147 9.09236C35.3094 9.21571 35.3325 9.33863 35.3822 9.45169C35.4319 9.56476 35.5069 9.66497 35.6014 9.74467C36.2113 10.1395 36.841 10.5031 37.4881 10.8339C38.6103 11.437 39.3923 12.0175 39.8342 12.5755C40.2884 13.1488 40.5263 13.8633 40.5063 14.5939C40.5086 15.1522 40.3898 15.7044 40.1579 16.2124C39.9553 16.6801 39.6371 17.0887 39.233 17.4001C38.4376 17.9929 37.3001 18.2904 35.8203 18.2924C34.2922 18.3172 32.7808 17.9731 31.4148 17.2893Z"/><path fill="#90A0B7" d="M46.9926 8.32928C46.6243 8.31576 46.2587 8.39661 45.9306 8.56412C45.6025 8.73164 45.3228 8.98023 45.1182 9.28621C44.6866 9.90159 44.4677 10.8247 44.4677 11.9939C44.4303 12.8883 44.6303 13.7768 45.0473 14.5693C45.2312 14.9075 45.5062 15.1877 45.8412 15.378C46.1763 15.5683 46.5581 15.6612 46.9433 15.6462C47.3085 15.6618 47.6714 15.5817 47.9959 15.4138C48.3205 15.2459 48.5953 14.9961 48.793 14.6893C49.2247 14.0462 49.4405 13.1508 49.4405 11.9816C49.4835 11.0831 49.2845 10.1895 48.864 9.3939C48.6806 9.06157 48.4088 8.78627 48.0786 8.5984C47.7484 8.41053 47.3726 8.31739 46.9926 8.32928ZM47.042 5.68311C48.8917 5.68311 50.3304 6.26772 51.358 7.43696C52.3445 8.54056 52.8368 10.0595 52.8347 11.9939C52.8327 13.9283 52.3404 15.4442 51.358 16.5416C50.3304 17.7068 48.8598 18.2904 46.9464 18.2924C45.0329 18.2945 43.5655 17.7109 42.544 16.5416C41.5575 15.4278 41.0642 13.9201 41.0642 12.0185C41.0642 10.0431 41.5575 8.51594 42.544 7.43696C43.6004 6.26772 45.0997 5.68311 47.042 5.68311Z"/><path fill="#90A0B7" d="M54.259 17.9416V6.03388H57.1662L57.3358 7.64004C58.4641 6.33542 59.7733 5.68311 61.2634 5.68311C62.811 5.68311 63.889 6.2267 64.4974 7.31389C64.8488 7.95184 65.0245 9.00415 65.0245 10.4708V17.9416H61.7073V11.0524C61.743 10.4561 61.6731 9.85824 61.5008 9.28621C61.4011 9.05413 61.2299 8.8598 61.012 8.73143C60.7941 8.60307 60.5409 8.54735 60.2892 8.57236C59.7461 8.59559 59.2277 8.80538 58.8217 9.16621C58.3029 9.58686 57.8777 10.1108 57.5732 10.7047V17.9416H54.259Z"/><path fill="#90A0B7" d="M69.0045 0.446522C69.2592 0.443575 69.5118 0.493784 69.7459 0.593929C69.98 0.694075 70.1906 0.841947 70.3641 1.02806C70.5494 1.20896 70.696 1.42548 70.7951 1.66452C70.8942 1.90356 70.9437 2.16017 70.9406 2.41884C70.9472 2.6953 70.8922 2.96977 70.7797 3.22249C70.6672 3.47521 70.5 3.6999 70.2901 3.88039C70.099 4.05396 69.8754 4.188 69.6321 4.27476C69.3887 4.36151 69.1306 4.39925 68.8726 4.3858C68.6146 4.37235 68.3618 4.30798 68.1288 4.19641C67.8959 4.08483 67.6874 3.92827 67.5155 3.73577C67.1846 3.37244 67.004 2.89748 67.0099 2.40653C67.0046 2.14756 67.0532 1.8903 67.1524 1.65094C67.2516 1.41159 67.3994 1.19532 67.5864 1.01576C67.773 0.831503 67.9945 0.686252 68.238 0.588509C68.4815 0.490765 68.7421 0.442494 69.0045 0.446522ZM67.3213 17.942V6.03425H70.6385V17.942H67.3213Z"/><path fill="#90A0B7" d="M76.6657 8.68006V17.9417H73.3485V8.68006H71.2151L71.4186 6.03389H73.3423V4.76311C73.3423 3.25541 73.6064 2.1354 74.1346 1.40309C74.8108 0.467695 75.8703 0 77.3131 0C78.3163 0.00855173 79.3065 0.22656 80.2202 0.640004L79.4773 3.00925C79.009 2.80357 78.5081 2.68171 77.9975 2.64925C77.7977 2.62963 77.5963 2.66414 77.4146 2.74916C77.2328 2.83418 77.0774 2.96655 76.9647 3.13233C76.7736 3.45643 76.678 4.02054 76.678 4.82465V6.03389H79.7177L79.5019 8.68006H76.6657Z"/><path fill="#90A0B7" d="M83.5188 18.1722L79.2644 6.03369H82.9762L85.4765 14.1353L88.5532 6.03369H91.8704L84.5393 24L81.3546 22.96L83.5188 18.1722Z"/></svg>